<svg width="600" height="91" viewBox="0 0 600 91" fill="none" xmlns="http://www.w3.org/2000/svg">
<path fill-rule="evenodd" clip-rule="evenodd" d="M80.5003 -51H-69.9997V28C-69.9997 61.1371 -43.1368 88 -9.99968 88C20.0924 88 45.0103 65.8472 49.3358 36.9601C57.8447 43.8635 68.6895 48 80.5003 48C82.7296 48 84.9245 47.8526 87.0757 47.5671C93.9051 72.5986 116.804 91 144 91C167.461 91 187.724 77.3064 197.232 57.4759C207.6 66.5211 221.16 72 236 72C256.488 72 274.536 61.558 285.113 45.7057C290.603 55.4326 301.035 62 313 62C321.433 62 329.104 58.7382 334.82 53.4074C344.149 75.4972 366.014 91 391.5 91C418.118 91 440.787 74.0897 449.349 50.4262C456.958 57.6018 467.216 62 478.5 62C489.48 62 499.488 57.8362 507.03 51.0014C513.054 71.2411 531.804 86 554 86C573.451 86 590.255 74.6666 598.169 58.243C608.577 76.043 627.892 88 650 88C683.138 88 710 61.1371 710 28V-51H80.5003Z" fill="#F9F9F9"/>
</svg>
