<svg width="600" height="64" viewBox="0 0 600 64" fill="none" xmlns="http://www.w3.org/2000/svg">
<path fill-rule="evenodd" clip-rule="evenodd" d="M532.5 142H683V63C683 29.8629 656.137 3 623 3C592.908 3 567.99 25.1528 563.665 54.0399C555.156 47.1365 544.311 43 532.5 43C530.271 43 528.076 43.1474 525.925 43.4329C519.095 18.4014 496.197 0 469 0C445.539 0 425.276 13.6936 415.768 33.5241C405.4 24.4788 391.84 19 377 19C356.513 19 338.465 29.442 327.887 45.2943C322.397 35.5674 311.966 29 300 29C291.567 29 283.896 32.2618 278.18 37.5926C268.851 15.5028 246.986 0 221.5 0C194.882 0 172.214 16.9103 163.652 40.5738C156.042 33.3982 145.785 29 134.5 29C123.52 29 113.513 33.1638 105.97 39.9986C99.9461 19.7589 81.1966 5 59 5C39.549 5 22.7451 16.3334 14.8317 32.7569C4.42327 14.957 -14.892 3 -37 3C-70.1371 3 -97 29.8629 -97 63V142H532.5Z" fill="#FFF0C9"/>
</svg>
